<svg width="26" height="21" viewBox="0 0 26 21" fill="none" xmlns="http://www.w3.org/2000/svg">
<path opacity="0.3" fill-rule="evenodd" clip-rule="evenodd" d="M10.2785 15.3409C9.92596 15.5272 9.9067 15.5962 9.87533 16.7858C9.84441 17.9595 9.81142 18.1068 9.50803 18.4265C9.30277 18.6429 8.8961 18.8374 8.6474 18.838C8.24863 18.839 7.88868 19.1169 7.82138 19.4757C7.77217 19.7381 7.91808 20.0787 8.146 20.2336C8.48182 20.4618 9.2603 20.3757 9.90341 20.0393C10.2778 19.8433 10.8178 19.3151 11.0349 18.9324C11.3228 18.4249 11.3985 17.9951 11.3985 16.8698C11.3985 15.9742 11.3886 15.8597 11.2941 15.6645C11.2183 15.5079 11.1306 15.4203 10.974 15.3444C10.7089 15.2161 10.5165 15.2151 10.2785 15.3409ZM12.6455 15.3549C12.2588 15.5766 12.2601 15.5681 12.2602 17.7987C12.2603 20.0038 12.2613 20.0112 12.6097 20.2439C12.9706 20.485 13.4953 20.3437 13.6918 19.9525C13.7717 19.7936 13.7804 19.5801 13.7805 17.7987C13.7806 15.9704 13.7735 15.808 13.6866 15.6447C13.5724 15.4301 13.261 15.2417 13.0204 15.2417C12.9228 15.2417 12.7541 15.2926 12.6455 15.3549ZM15.0629 15.3454C14.9109 15.4207 14.8203 15.5122 14.7461 15.6655C14.6522 15.8595 14.6422 15.9756 14.6422 16.8698C14.6422 17.9951 14.718 18.4249 15.0058 18.9324C15.2229 19.3151 15.7629 19.8433 16.1373 20.0393C16.7804 20.3757 17.5589 20.4618 17.8947 20.2336C18.1226 20.0787 18.2686 19.7381 18.2193 19.4757C18.152 19.1169 17.7921 18.839 17.3933 18.838C17.1446 18.8374 16.738 18.6429 16.5327 18.4265C16.2293 18.1068 16.1963 17.9595 16.1654 16.7858C16.1339 15.59 16.1149 15.5239 15.7515 15.3385C15.5043 15.2124 15.3281 15.2142 15.0629 15.3454Z" fill="#2C2B46"/>
<path fill-rule="evenodd" clip-rule="evenodd" d="M2.53775 0.666795C2.3893 0.702729 2.07253 0.828877 1.83382 0.947169C1.07648 1.32247 0.503108 1.99432 0.18979 2.87355L0.0724099 3.20299L0.0570025 7.34018C0.0396185 11.9962 0.032827 11.8928 0.407014 12.6552C0.800359 13.4567 1.59379 14.1091 2.4782 14.3583C2.64332 14.4048 3.07199 14.4484 3.52985 14.4651L4.30276 14.4934L4.30352 13.3842C4.30438 12.1209 4.34913 11.84 4.64588 11.2361C4.91936 10.6796 5.50129 10.105 6.07664 9.82336C6.84321 9.4481 6.53577 9.46402 13.0201 9.46402C19.5044 9.46402 19.197 9.4481 19.9636 9.82336C20.5389 10.105 21.1209 10.6796 21.3943 11.2361C21.6911 11.84 21.7358 12.1209 21.7367 13.3842L21.7375 14.4934L22.5104 14.4651C22.9682 14.4484 23.3969 14.4048 23.562 14.3583C24.4464 14.1091 25.2399 13.4567 25.6332 12.6552C26.0074 11.8928 26.0006 11.9962 25.9832 7.34018L25.9678 3.20299L25.8504 2.87355C25.5279 1.96857 24.957 1.31132 24.1618 0.929786C23.9016 0.804905 23.5678 0.678047 23.4202 0.647789C22.9983 0.561477 2.89739 0.579774 2.53775 0.666795ZM18.5252 3.61159C18.8871 3.88218 18.988 4.27258 18.7865 4.62209C18.5917 4.96004 18.4345 5.00819 17.5815 4.99136C16.9389 4.97869 16.8297 4.96414 16.7121 4.8755C16.3522 4.6043 16.2936 4.12069 16.577 3.76039C16.7665 3.5194 16.9295 3.48052 17.692 3.49446C18.3016 3.50556 18.4023 3.5197 18.5252 3.61159ZM22.1419 3.57053C22.2389 3.61924 22.372 3.73895 22.4378 3.83651C22.6008 4.07842 22.5782 4.52949 22.3931 4.72756C22.1637 4.97317 22.0472 5.00221 21.2914 5.00221C20.6432 5.00221 20.573 4.99298 20.4145 4.88716C19.9285 4.56244 19.9712 3.84179 20.4919 3.58407C20.7772 3.44287 21.8699 3.43389 22.1419 3.57053ZM7.19727 11.0375C6.7019 11.1348 6.17521 11.5536 5.96539 12.017C5.85693 12.2566 5.8474 12.3541 5.83235 13.3774L5.81613 14.4798H13.0201H20.2241L20.2079 13.3774C20.1928 12.3541 20.1833 12.2566 20.0748 12.017C19.9412 11.7218 19.5769 11.3438 19.2782 11.1905C19.166 11.1329 18.952 11.0626 18.8024 11.0343C18.4661 10.9705 7.52296 10.9735 7.19727 11.0375Z" fill="#2C2B46"/>
</svg>
