<svg width="29" height="29" viewBox="0 0 29 29" fill="none" xmlns="http://www.w3.org/2000/svg">
<path opacity="0.4" fill-rule="evenodd" clip-rule="evenodd" d="M12.498 6.36898C12.0414 6.48323 11.6996 6.67833 11.3553 7.02131C11.0008 7.37459 10.7864 7.7636 10.6877 8.23314C10.6511 8.40699 10.6272 9.1514 10.6272 10.1175V11.7145H19.5744H28.5216V10.1175C28.5216 9.13204 28.4981 8.41046 28.4601 8.23314C28.2602 7.29916 27.5092 6.54771 26.5804 6.35238C26.1457 6.26091 12.8672 6.27658 12.498 6.36898ZM21.5822 8.29897C21.8228 8.42174 22.0145 8.73413 22.0145 9.0032C22.0145 9.41764 21.6137 9.81658 21.1972 9.81658C20.945 9.81658 20.6099 9.6057 20.4906 9.37182C20.2904 8.97928 20.4161 8.55074 20.7995 8.3186C21.0591 8.16146 21.3007 8.15538 21.5822 8.29897ZM24.8357 8.29897C25.0763 8.42174 25.2681 8.73413 25.2681 9.0032C25.2681 9.41764 24.8672 9.81658 24.4507 9.81658C24.1985 9.81658 23.8635 9.6057 23.7442 9.37182C23.5439 8.97928 23.6696 8.55074 24.053 8.3186C24.3127 8.16146 24.5542 8.15538 24.8357 8.29897Z" fill="#2C2B46"/>
<path fill-rule="evenodd" clip-rule="evenodd" d="M2.63042 0.837442C2.17384 0.951695 1.83206 1.1468 1.48778 1.48977C1.1332 1.84305 0.918849 2.23207 0.820104 2.70161C0.779002 2.89703 0.759644 4.19422 0.759644 6.75496V10.521H4.88078H9.00192V9.43419C9.00192 8.23255 9.06758 7.76431 9.32109 7.15796C9.71352 6.21938 10.5381 5.39363 11.4843 4.99166C12.2022 4.68669 12.4479 4.66462 15.1271 4.66462H17.5695V3.82678C17.5695 3.36598 17.5419 2.85967 17.508 2.70161C17.3082 1.76763 16.5572 1.01617 15.6283 0.820849C15.1944 0.729533 2.99932 0.74515 2.63042 0.837442ZM5.20754 5.20758C5.34533 5.27786 5.46051 5.39303 5.53078 5.53082C5.63083 5.72701 5.63994 5.84902 5.63994 6.99632C5.63994 8.14362 5.63083 8.26563 5.53078 8.46182C5.40737 8.70372 5.0953 8.89421 4.82254 8.89421C4.57034 8.89421 4.23533 8.68333 4.11604 8.44945C4.02353 8.26812 4.01339 8.12063 4.01545 6.98493C4.018 5.55376 4.0398 5.46033 4.42491 5.22721C4.68454 5.07007 4.92606 5.06399 5.20754 5.20758ZM0.759644 19.2215C0.759644 24.2899 0.777106 26.3767 0.821137 26.5826C1.02052 27.5142 1.76927 28.263 2.70086 28.4623C2.89781 28.5045 4.06187 28.5238 6.4011 28.5238H9.81394L9.62546 28.2292C9.43236 27.9273 9.27223 27.5662 9.11888 27.0869C9.04155 26.845 9.03039 26.0246 9.01574 19.4817L8.99926 12.1477H4.87948H0.759644V19.2215ZM10.6287 19.818C10.6287 24.4417 10.6463 26.3775 10.6902 26.5826C10.8896 27.5142 11.6383 28.263 12.5699 28.4623C12.9731 28.5486 26.1724 28.5495 26.5819 28.4633C27.5021 28.2695 28.2706 27.5012 28.4629 26.5826C28.505 26.3814 28.5231 24.3539 28.5231 19.818V13.3407H19.5759H10.6287V19.818ZM5.20754 13.8837C5.34533 13.9539 5.46051 14.0691 5.53078 14.2069C5.63517 14.4115 5.63994 14.5227 5.63994 16.7569C5.63994 18.9911 5.63517 19.1023 5.53078 19.3069C5.40737 19.5488 5.0953 19.7393 4.82254 19.7393C4.57034 19.7393 4.23533 19.5284 4.11604 19.2945C4.01962 19.1056 4.01333 18.9459 4.01545 16.7455C4.018 14.1035 4.01073 14.154 4.42491 13.9033C4.68454 13.7461 4.92606 13.7401 5.20754 13.8837ZM20.8502 15.1266C22.657 15.5978 24.0731 17.0223 24.5731 18.8717C24.6763 19.253 24.6978 19.4684 24.6978 20.1189C24.6978 20.7693 24.6763 20.9848 24.5731 21.3661C24.0735 23.2142 22.6769 24.6207 20.8502 25.1156C20.2082 25.2896 18.9751 25.2892 18.3287 25.115C16.4759 24.6155 15.083 23.2297 14.5764 21.3815C14.4097 20.7731 14.4097 19.4647 14.5764 18.8563C15.1367 16.8122 16.7831 15.3441 18.8981 15.0027C19.2739 14.942 20.4221 15.0149 20.8502 15.1266ZM18.8167 16.6785C17.8433 16.8876 16.8814 17.643 16.4381 18.5463C16.1835 19.0652 16.0531 19.5979 16.0531 20.1189C16.0531 21.4153 16.844 22.6878 18.0033 23.2566C19.0475 23.769 20.1043 23.769 21.1484 23.2566C22.0637 22.8075 22.8109 21.8467 23.0193 20.8509C23.1851 20.0579 23.0851 19.3033 22.7136 18.5463C22.3963 17.8996 21.7952 17.2985 21.1484 16.9811C20.3943 16.611 19.6068 16.5089 18.8167 16.6785Z" fill="#2C2B46"/>
</svg>
