<svg width="34" height="34" viewBox="0 0 34 34" fill="none" xmlns="http://www.w3.org/2000/svg">
<path opacity="0.4" fill-rule="evenodd" clip-rule="evenodd" d="M5.22196 1.00939C4.90093 1.17212 4.70713 1.4927 4.70713 1.86112C4.70713 2.22954 4.90093 2.55012 5.22196 2.71285C5.42776 2.81721 5.69371 2.82479 8.60222 2.80918C11.6769 2.79274 11.7637 2.78882 11.9363 2.65987C12.2545 2.42213 12.3708 2.20835 12.3708 1.86112C12.3708 1.51389 12.2545 1.3001 11.9363 1.06237C11.7637 0.933416 11.6769 0.929498 8.60222 0.913058C5.69371 0.897453 5.42776 0.905031 5.22196 1.00939ZM30.3213 1.00669C30.1985 1.07046 30.0323 1.22079 29.9522 1.34082C29.8254 1.53078 29.8065 1.64085 29.8065 2.19172V2.8244L29.2127 2.82453C28.5242 2.82459 28.255 2.9251 28.0264 3.26738C27.7211 3.72468 27.9 4.38941 28.3955 4.63845C28.56 4.72117 28.7756 4.75077 29.2127 4.75084L29.8065 4.75096V5.38365C29.8065 5.93452 29.8254 6.04459 29.9522 6.23455C30.3429 6.81964 31.118 6.80603 31.5656 6.20623C31.6704 6.06578 31.7008 5.90812 31.7212 5.3972L31.7467 4.76252L32.3769 4.74069C32.8912 4.7229 33.0397 4.69452 33.1842 4.58644C33.5023 4.34857 33.6186 4.13485 33.6186 3.78768C33.6186 3.44052 33.5023 3.2268 33.1842 2.98893C33.0397 2.88085 32.8912 2.85246 32.3769 2.83468L31.7467 2.81284L31.7212 2.17817C31.694 1.50002 31.6284 1.33883 31.2702 1.07136C31.0328 0.893985 30.596 0.864252 30.3213 1.00669ZM1.3062 4.86251C0.98517 5.02524 0.791382 5.34582 0.791382 5.71425C0.791382 6.08267 0.98517 6.40325 1.3062 6.56598C1.51206 6.67033 1.77949 6.67791 4.71856 6.66231C7.82561 6.64587 7.91201 6.64201 8.08469 6.513C8.4029 6.27526 8.51922 6.06148 8.51922 5.71425C8.51922 5.36701 8.4029 5.15323 8.08469 4.91549C7.91201 4.78648 7.82561 4.78262 4.71856 4.76618C1.77949 4.75058 1.51206 4.75816 1.3062 4.86251ZM24.4798 28.107C24.3569 28.1708 24.1908 28.3211 24.1107 28.4411C23.9838 28.6311 23.965 28.7412 23.965 29.292V29.9247L23.3712 29.9248C22.6827 29.9249 22.4134 30.0254 22.1849 30.3677C21.8795 30.825 22.0584 31.4897 22.554 31.7388C22.7185 31.8215 22.934 31.8511 23.3712 31.8511L23.965 31.8513V32.484C23.965 33.0348 23.9838 33.1449 24.1107 33.3349C24.5014 33.92 25.2765 33.9063 25.7241 33.3065C25.8289 33.1661 25.8592 33.0084 25.8797 32.4975L25.9052 31.8628L26.5354 31.841C27.0496 31.8232 27.1982 31.7948 27.3426 31.6867C27.6608 31.4489 27.7771 31.2352 27.7771 30.888C27.7771 30.5408 27.6608 30.3271 27.3426 30.0892C27.1982 29.9812 27.0496 29.9528 26.5354 29.935L25.9052 29.9132L25.8797 29.2785C25.8525 28.6003 25.7868 28.4391 25.4287 28.1717C25.1912 27.9943 24.7545 27.9646 24.4798 28.107Z" fill="#2C2B46"/>
<path fill-rule="evenodd" clip-rule="evenodd" d="M17.6419 2.42035C16.8092 2.53305 15.6528 2.9829 14.8977 3.48805C14.108 4.01631 10.7267 7.43564 10.3887 8.04771C9.9926 8.7651 9.83276 9.35675 9.79604 10.2419L9.76401 11.0125L12.4512 8.34382C15.2977 5.51691 15.4095 5.42386 16.2573 5.17469C16.7101 5.04169 17.6107 5.04169 18.0635 5.17469C18.9752 5.44261 19.7601 6.10015 20.167 6.93666L20.4028 7.42138L20.8518 7.26585C21.4897 7.04487 22.3396 7.04622 22.9764 7.26925C24.9095 7.94618 25.7802 9.95847 24.9711 11.8794C24.9408 11.9513 25.0566 12.0354 25.4266 12.2106C27.0511 12.9793 27.7457 14.9116 27.0185 16.6389C26.9843 16.7201 27.082 16.7933 27.4697 16.9776C28.0704 17.2629 28.7201 17.8897 28.9874 18.4415C29.4918 19.4828 29.4811 20.5979 28.9569 21.6034C28.7938 21.9161 28.3533 22.3973 26.7442 24.0199C25.6393 25.1341 24.7352 26.0699 24.7352 26.0993C24.7352 26.1287 25.1179 26.1388 25.5857 26.1217C26.2862 26.0961 26.5268 26.06 26.9498 25.917C27.9311 25.5851 28.2082 25.3709 30.1484 23.4456C32.0668 21.5417 32.4117 21.139 32.8492 20.2921C33.779 18.4919 33.8427 16.2298 33.0152 14.4039C32.5094 13.288 32.5046 13.2826 27.6622 8.42326C22.6927 3.43623 22.621 3.37258 21.4261 2.88433C20.5287 2.51764 19.7366 2.37296 18.691 2.38471C18.2199 2.38997 17.7478 2.40603 17.6419 2.42035ZM16.543 7.1139C16.433 7.17421 14.122 9.42771 11.4076 12.1216C6.69738 16.7963 6.47027 17.0116 6.42797 16.8417C6.40358 16.7438 6.31024 15.3344 6.22062 13.7097L6.05771 10.7556L5.84773 10.3406C5.24258 9.14431 3.63578 8.91531 2.74767 9.89875C2.35802 10.3302 2.28169 10.5842 2.17019 11.8207C1.98358 13.8895 1.85949 14.9144 1.33536 18.7187C0.838185 22.3273 0.827664 22.4403 0.825418 24.2094C0.823685 25.5733 0.843647 25.9436 0.944558 26.425C1.3084 28.1605 2.08834 29.548 3.48332 30.941C4.83862 32.2945 6.48952 33.1797 8.4302 33.5935C9.31291 33.7818 11.097 33.8008 12.0073 33.6318C13.2938 33.3928 14.5948 32.8654 15.7113 32.1304C16.2971 31.7447 16.8673 31.1961 21.7657 26.3052C24.913 23.1627 27.2191 20.8111 27.2827 20.6792C27.3429 20.5546 27.4034 20.2793 27.4173 20.0673C27.468 19.292 26.8994 18.6366 26.1197 18.5719C25.4678 18.5179 25.4634 18.5212 23.1624 20.8083C20.8859 23.0711 20.8931 23.0656 20.3445 22.9626C19.7349 22.8483 19.4253 22.1634 19.7238 21.59C19.792 21.459 21.0371 20.1669 22.4907 18.7187C24.247 16.9689 25.1739 15.9996 25.2538 15.8289C25.4998 15.3043 25.3646 14.5659 24.9519 14.1787C24.5658 13.8164 23.8982 13.6987 23.4011 13.9051C23.2387 13.9725 22.2804 14.8842 20.4021 16.7579C17.9887 19.1655 17.6116 19.5171 17.4011 19.5558C16.6429 19.6951 16.0885 19.1406 16.2272 18.3816C16.2659 18.1699 16.6851 17.7253 19.6942 14.7051C21.5768 12.8154 23.1593 11.1827 23.2108 11.0767C23.3593 10.7717 23.3903 10.4882 23.3147 10.1272C23.2571 9.85187 23.1847 9.73371 22.9074 9.46238C22.4123 8.97792 21.8597 8.88512 21.2688 9.18721C21.1452 9.2504 19.5564 10.7942 17.7382 12.618C15.9199 14.4417 14.325 15.9897 14.1941 16.058C13.6209 16.3567 12.9363 16.0469 12.822 15.4371C12.7167 14.8762 12.6559 14.9514 15.622 11.9758C17.4949 10.0968 18.4062 9.13808 18.4736 8.97561C18.7702 8.26066 18.4228 7.3905 17.7242 7.09856C17.4071 6.96607 16.7983 6.97397 16.543 7.1139Z" fill="#2C2B46"/>
</svg>
