<svg width="34" height="34" viewBox="0 0 34 34" fill="none" xmlns="http://www.w3.org/2000/svg">
<path fill-rule="evenodd" clip-rule="evenodd" d="M10.9248 0.982422C10.687 1.09249 10.4738 1.31906 10.3834 1.55769C10.3392 1.67464 10.315 2.63207 10.315 4.26779V6.79711L8.71469 6.81631C6.95401 6.83744 6.95684 6.8368 6.62785 7.27766C6.5001 7.44886 6.49548 7.5328 6.49548 9.69325C6.49548 11.8537 6.5001 11.9376 6.62785 12.1088C6.90786 12.4841 7.06506 12.5492 7.74628 12.5729L8.37826 12.5948L8.40644 15.5591C8.43256 18.3026 8.44502 18.5699 8.57366 19.1491C8.95767 20.8782 9.71302 22.2585 10.9556 23.5016C11.9652 24.5116 13.0388 25.1822 14.3377 25.6143C14.8954 25.7999 15.7766 26.0048 16.0166 26.0048C16.1195 26.0048 16.1516 26.0839 16.2189 26.5025C16.421 27.76 17.0716 29.278 17.8522 30.3134C19.372 32.3292 21.7377 33.5981 24.2646 33.7528C24.8205 33.7868 24.9637 33.7752 25.1643 33.68C25.8171 33.3701 25.9037 32.4457 25.319 32.0292C25.1657 31.92 24.9808 31.8799 24.4351 31.8375C21.9115 31.6412 19.8175 30.2614 18.751 28.0919C18.4699 27.52 18.0823 26.3475 18.0823 26.069C18.0823 26.0426 18.3378 25.9744 18.6501 25.9172C20.3248 25.6107 21.8016 24.8397 23.0676 23.6108C24.4739 22.2458 25.3402 20.5787 25.6278 18.6839C25.6975 18.225 25.7206 17.3948 25.7208 15.3343L25.7212 12.5948L26.3792 12.5729C26.9355 12.5544 27.0682 12.5288 27.2379 12.4078C27.636 12.1237 27.647 12.0508 27.647 9.69325C27.647 7.33571 27.636 7.26282 27.2379 6.97872C27.0449 6.84103 26.9745 6.83474 25.4163 6.81637L23.7954 6.79724V4.22521C23.7954 1.38251 23.7926 1.36054 23.3863 1.07059C23.2408 0.966753 23.0943 0.927387 22.8533 0.927387C22.4943 0.927387 22.2764 1.04497 22.0341 1.36947C21.9062 1.54074 21.9011 1.63533 21.8836 4.17506L21.8655 6.8034H17.0531H12.2407V4.22829C12.2407 1.39214 12.2366 1.35932 11.8418 1.07811C11.6047 0.909213 11.179 0.864774 10.9248 0.982422ZM17.4801 12.6873C17.879 12.8767 18.104 13.388 17.9894 13.8448C17.9646 13.9435 17.6869 14.2856 17.3647 14.6143L16.7846 15.206L18.1999 15.9185C19.6635 16.6552 19.8434 16.7875 19.9172 17.1812C20.013 17.6918 19.943 17.802 18.7668 18.9926C18.1608 19.6061 17.587 20.1488 17.4917 20.1987C16.9422 20.4862 16.2 20.0624 16.1126 19.4112C16.0651 19.0564 16.2004 18.8216 16.8186 18.1865C17.1021 17.8953 17.3219 17.646 17.307 17.6325C17.2921 17.6191 16.6397 17.2865 15.8572 16.8936C14.4806 16.2022 14.4303 16.1702 14.3006 15.9021C14.0132 15.3081 14.146 15.0645 15.4728 13.7524C16.0501 13.1816 16.5917 12.6868 16.6765 12.6529C16.9129 12.5582 17.2374 12.5722 17.4801 12.6873Z" fill="#2C2B46"/>
</svg>
