<svg width="34" height="30" viewBox="0 0 34 30" fill="none" xmlns="http://www.w3.org/2000/svg">
<path fill-rule="evenodd" clip-rule="evenodd" d="M15.3266 0.416215C15.2083 0.474525 15.0455 0.625632 14.965 0.75195C14.8843 0.878269 12.8773 5.20218 10.5048 10.3606L6.19116 19.7396L5.73097 19.6589C4.19599 19.3893 2.69215 19.8817 1.56004 21.0245C0.879599 21.7115 0.463565 22.4896 0.268933 23.4394C-0.358551 26.5014 2.12796 29.3771 5.23745 29.1857C6.4652 29.1101 7.46038 28.6565 8.35754 27.7634C8.85112 27.272 8.9867 27.0891 9.23981 26.5728C9.89412 25.2381 9.95607 24.1721 9.46243 22.7435L9.2599 22.1572L13.2457 13.3996C15.4379 8.58298 17.2834 4.46868 17.3468 4.25675C17.5275 3.65252 17.503 2.65205 17.2927 2.05867C16.8108 0.698649 16.0475 0.0609565 15.3266 0.416215ZM23.8044 0.414095C23.4705 0.578752 23.309 0.857975 23.309 1.27058C23.309 1.53311 23.3458 1.67535 23.4522 1.8246C23.7261 2.20875 23.8605 2.23386 25.6457 2.23386H27.2569V3.19714V4.16042H25.6457C23.8605 4.16042 23.7261 4.18553 23.4522 4.56969C23.2524 4.84994 23.2524 5.39747 23.4522 5.67772C23.7261 6.06188 23.8605 6.08699 25.6457 6.08699H27.2569V7.05027V8.01355H25.6457C23.8605 8.01355 23.7261 8.03866 23.4522 8.42282C23.2524 8.70307 23.2524 9.2506 23.4522 9.53085C23.7261 9.915 23.8605 9.94011 25.6457 9.94011H27.2569V10.9034V11.8667H25.6457C23.8605 11.8667 23.7261 11.8918 23.4522 12.2759C23.3458 12.4252 23.309 12.5674 23.309 12.83C23.309 13.0925 23.3458 13.2347 23.4522 13.384C23.7261 13.7681 23.8605 13.7932 25.6457 13.7932H27.2569V14.7565V15.7198H25.6457C23.8605 15.7198 23.7261 15.7449 23.4522 16.1291C23.2524 16.4093 23.2524 16.9568 23.4522 17.2371C23.7261 17.6213 23.8605 17.6464 25.6457 17.6464H27.2569V18.6096V19.5729H25.6457C23.8605 19.5729 23.7261 19.598 23.4522 19.9822C23.2524 20.2624 23.2524 20.81 23.4522 21.0902C23.7261 21.4744 23.8605 21.4995 25.6457 21.4995H27.2569V22.4628V23.4261H25.6457C23.8605 23.4261 23.7261 23.4512 23.4522 23.8353C23.2524 24.1156 23.2524 24.6631 23.4522 24.9433C23.7261 25.3275 23.8605 25.3526 25.6457 25.3526H27.2569V26.3159V27.2792H25.6457C23.8605 27.2792 23.7261 27.3043 23.4522 27.6884C23.2524 27.9687 23.2524 28.5162 23.4522 28.7965C23.7474 29.2105 23.7043 29.2057 27.1776 29.2057C29.0469 29.2057 30.4606 29.1792 30.6661 29.1402C31.8294 28.9195 32.782 27.9486 32.9716 26.7903C33.0553 26.279 33.0553 3.23401 32.9716 2.72276C32.782 1.56445 31.8294 0.593587 30.6661 0.372867C30.4598 0.333694 29.0505 0.307878 27.1679 0.308777C24.3951 0.310061 23.9897 0.322776 23.8044 0.414095ZM5.50251 21.5651C7.00629 21.8503 8.04807 23.3135 7.81479 24.8125C7.57227 26.3713 6.07831 27.4799 4.55971 27.2282C3.39178 27.0346 2.47761 26.2033 2.19561 25.0783C2.06639 24.5628 2.06639 24.2159 2.19561 23.7003C2.56556 22.2247 4.02209 21.2842 5.50251 21.5651Z" fill="#2C2B46"/>
<path opacity="0.4" fill-rule="evenodd" clip-rule="evenodd" d="M12.858 18.9022C12.3039 20.1235 11.8506 21.1615 11.8506 21.2088C11.8506 21.2561 11.9372 21.478 12.0431 21.7019C12.149 21.9259 12.2357 22.1402 12.2357 22.1783C12.2357 22.2163 12.1629 22.4267 12.074 22.6458C11.3605 24.4024 11.7658 26.3918 13.1147 27.7536C14.1134 28.7618 15.4183 29.2698 16.7921 29.1852C18.0199 29.1096 19.0151 28.656 19.9122 27.7629C20.4055 27.2719 20.5416 27.0883 20.7948 26.5723C21.2098 25.7267 21.3153 25.2839 21.3153 24.3888C21.3153 23.4938 21.2098 23.051 20.7948 22.2054C20.5416 21.6894 20.4055 21.5058 19.9122 21.0148C19.2735 20.379 18.6879 20.0247 17.853 19.7688C17.2549 19.5855 16.3783 19.5364 15.7858 19.653L15.3237 19.744L14.6405 18.2615C14.2647 17.4461 13.9366 16.7571 13.9114 16.7304C13.8861 16.7037 13.4121 17.681 12.858 18.9022ZM17.0572 21.5646C18.561 21.8498 19.6027 23.3131 19.3695 24.812C19.1764 26.0526 18.2109 27.0201 16.9589 27.2277C15.8363 27.4137 14.5818 26.7993 14.0205 25.7883C13.8208 25.4287 13.648 24.7794 13.648 24.3888C13.648 24.2344 13.694 23.9243 13.7503 23.6998C14.1202 22.2242 15.5768 21.2837 17.0572 21.5646Z" fill="#2C2B46"/>
<path opacity="0.4" fill-rule="evenodd" clip-rule="evenodd" d="M5.33202 0.43545C4.67007 0.763286 4.02576 2.13763 4.02249 3.22864C4.02018 4.02027 4.1467 4.35678 5.88883 8.19359C6.81391 10.2311 7.58776 11.918 7.60849 11.942C7.63821 11.9768 9.47451 8.06335 9.64122 7.6099C9.66895 7.53445 9.16607 6.37132 8.1558 4.1742C7.31571 2.34731 6.57608 0.776387 6.51221 0.68327C6.39037 0.505833 5.97922 0.306627 5.73503 0.306755C5.65626 0.306755 5.47492 0.364681 5.33202 0.43545Z" fill="#2C2B46"/>
</svg>
