<svg width="34" height="34" viewBox="0 0 34 34" fill="none" xmlns="http://www.w3.org/2000/svg">
<path fill-rule="evenodd" clip-rule="evenodd" d="M5.05654 0.731378C4.09527 0.922569 3.2518 1.66894 2.91262 2.62855C2.79206 2.96959 2.77789 3.18635 2.75309 5.07186C2.73591 6.377 2.75193 7.33468 2.79648 7.66566C2.88896 8.35294 3.14771 8.90139 3.5845 9.3362C4.21672 9.96547 4.88778 10.2133 5.95949 10.2133H6.57715L6.59638 12.3765C6.61497 14.4752 6.61992 14.5484 6.76086 14.8345C7.42916 16.1907 9.24441 16.3193 10.0854 15.0698C10.3709 14.6457 10.4291 14.1955 10.4291 12.4128C10.4291 10.9189 10.4334 10.8667 10.5746 10.6554C10.957 10.0831 11.76 10.0831 12.1423 10.6554C12.2672 10.8423 12.2878 10.9566 12.2878 11.4608C12.2878 12.5 12.4282 12.989 12.8557 13.4395C13.8253 14.4609 15.507 14.1039 16.0143 12.7688C16.114 12.5066 16.1334 12.2717 16.1334 11.3342V10.2133H20.6065C25.5087 10.2133 25.4914 10.2145 26.1606 9.82997C26.5483 9.60718 27.0151 9.13629 27.2429 8.73827C27.4781 8.32698 27.6042 7.717 27.6052 6.9839L27.6062 6.3502L28.2094 6.3818C28.869 6.41629 29.1231 6.51659 29.362 6.83687C29.4882 7.00595 29.4982 7.10978 29.5154 8.43921C29.5331 9.81241 29.5288 9.87055 29.3872 10.1477C29.3065 10.3056 29.1541 10.484 29.0483 10.5444C28.9425 10.6047 26.421 11.3472 23.4448 12.1944C20.4686 13.0415 17.8824 13.8111 17.6976 13.9047C17.5128 13.9982 17.2132 14.2223 17.0318 14.4027C16.3686 15.0625 16.136 15.7166 16.1344 16.9271L16.1334 17.6482H17.0895H18.0456L18.0669 16.8835C18.0898 16.0642 18.1411 15.9211 18.5089 15.6502C18.5948 15.5869 21.1023 14.8415 24.081 13.9937C27.0598 13.146 29.6512 12.3777 29.8398 12.2864C30.6041 11.9165 31.2478 11.0264 31.3855 10.1492C31.4648 9.64365 31.469 7.59099 31.3919 6.99313C31.288 6.18734 30.802 5.41085 30.1179 4.95771C29.6393 4.6407 29.1069 4.50899 28.3045 4.50899H27.6062L27.6052 3.88408C27.6047 3.54041 27.5607 3.07419 27.5074 2.8482C27.2918 1.93339 26.5569 1.13376 25.6285 0.803675C25.3572 0.707279 24.4455 0.69696 15.3323 0.687089C9.83305 0.681129 5.20896 0.701062 5.05654 0.731378Z" fill="#2C2B46"/>
<path opacity="0.4" fill-rule="evenodd" clip-rule="evenodd" d="M12.6327 19.727C12.3892 19.833 12.2865 20.0919 12.2904 20.59C12.2965 21.3864 12.3189 21.4271 13.2741 22.3842L14.1467 23.2585L13.5923 25.9814C13.0944 28.4267 13.0379 28.7762 13.0379 29.4093C13.038 30.008 13.0643 30.1917 13.2123 30.6271C13.4973 31.466 13.9486 32.117 14.5823 32.6038C15.3766 33.2139 16.0701 33.4466 17.0946 33.4466C18.1191 33.4466 18.8126 33.2139 19.6069 32.6038C20.2465 32.1125 20.7216 31.4304 20.9839 30.6271C21.1232 30.2004 21.1513 29.996 21.1511 29.4093C21.151 28.7766 21.0942 28.4252 20.597 25.983L20.0431 23.2617L20.9403 22.3567L21.8375 21.4518V20.8618C21.8375 20.2133 21.7479 19.9065 21.5096 19.7396C21.3751 19.6454 20.9373 19.6353 17.0963 19.6376C13.6524 19.6396 12.794 19.6568 12.6327 19.727Z" fill="#2C2B46"/>
</svg>
