<svg width="34" height="33" viewBox="0 0 34 33" fill="none" xmlns="http://www.w3.org/2000/svg">
<path fill-rule="evenodd" clip-rule="evenodd" d="M2.21479 0.131001C1.80665 0.257833 1.25986 0.765996 1.0633 1.20114C0.917458 1.52397 0.9104 1.60334 0.9104 2.92028C0.9104 4.23721 0.917458 4.31659 1.0633 4.63941C1.27212 5.10166 1.80736 5.58536 2.25363 5.71514C2.5459 5.80017 3.17364 5.81121 6.82268 5.79587L11.0529 5.77801L11.3817 5.60443C11.7914 5.38827 12.1991 4.9327 12.3319 4.54283C12.4778 4.11443 12.4778 1.72613 12.3319 1.29773C12.1991 0.907855 11.7914 0.452288 11.3817 0.236127L11.0529 0.0625441L6.78403 0.0500856C3.20407 0.039618 2.46675 0.0526544 2.21479 0.131001ZM28.8548 0.579184C28.4463 0.708007 27.8992 1.21707 27.7033 1.65067L27.5504 1.98911V6.25965V10.5302L27.7033 10.8686C27.7977 11.0777 27.9897 11.3291 28.2055 11.5265C28.7287 12.0048 28.9583 12.0532 30.5838 12.0279C31.888 12.0077 31.9223 12.0036 32.2444 11.8336C32.4253 11.7382 32.6903 11.5271 32.8334 11.3645C33.3104 10.8224 33.2957 10.9847 33.2957 6.25965C33.2957 1.53463 33.3104 1.69691 32.8334 1.15478C32.6903 0.992239 32.4253 0.781088 32.2444 0.685659C31.9195 0.514194 31.8988 0.511883 30.5354 0.498268C29.4666 0.487544 29.0874 0.505782 28.8548 0.579184ZM23.7309 1.48788C19.9997 1.88764 16.8784 4.62477 15.9926 8.27387C15.745 9.29399 15.6988 10.3661 15.7197 14.6081L15.7389 18.4933L20.5373 18.5098L25.3358 18.5263V14.8011V11.0761H25.5274H25.7189L25.6718 10.6747C25.6103 10.1516 25.6103 2.36768 25.6718 1.84461L25.7189 1.44325L24.8373 1.45352C24.3524 1.45917 23.8545 1.47465 23.7309 1.48788ZM3.46931 16.3094C3.32321 16.3626 2.90436 16.5352 2.53852 16.6928L1.87329 16.9796L1.85429 19.1814C1.82784 22.246 1.95154 23.3608 2.49378 24.9422C3.51149 27.9104 5.69795 30.3839 8.48514 31.7201C9.37813 32.1482 9.7808 32.2962 10.6959 32.5323C13.9358 33.3684 17.3482 32.7763 20.1682 30.8889C23.379 28.7399 25.3358 25.107 25.3358 21.2947V20.452H20.5271H15.7185L15.6946 21.1102C15.6667 21.8764 15.5392 22.2091 15.1064 22.6445C14.6904 23.063 14.2394 23.2454 13.6206 23.2454C12.7459 23.2454 12.093 22.8432 11.7122 22.0696L11.5022 21.6432L11.4701 19.3025L11.438 16.9618L10.6197 16.6168C9.43359 16.1167 9.34564 16.1145 8.39033 16.5634C7.35714 17.0489 6.83019 17.1603 6.18698 17.0291C5.91345 16.9733 5.42598 16.7924 5.0163 16.5947C4.23841 16.2193 3.89215 16.1555 3.46931 16.3094Z" fill="#2C2B46"/>
<path opacity="0.4" fill-rule="evenodd" clip-rule="evenodd" d="M1.84143 11.2298C1.84143 13.2292 1.85677 14.865 1.87558 14.865C1.89439 14.865 2.01712 14.8188 2.1484 14.7622C2.79328 14.4846 3.3221 14.3418 3.8314 14.3078C4.30906 14.276 4.43918 14.2925 4.87608 14.4399C5.15057 14.5325 5.61263 14.7277 5.90291 14.8737C6.19832 15.0223 6.52981 15.1418 6.65595 15.1451C6.80603 15.149 7.13862 15.0289 7.65126 14.7856C8.07474 14.5847 8.55118 14.391 8.71005 14.3552C9.36347 14.2081 10.2248 14.3345 11.045 14.6979C11.2524 14.7898 11.433 14.865 11.4462 14.865C11.4595 14.865 11.4703 13.2362 11.4703 11.2454V7.62581L11.1515 7.6838C10.7509 7.75662 2.10667 7.72445 1.95377 7.64957C1.84746 7.59749 1.84143 7.7895 1.84143 11.2298Z" fill="#2C2B46"/>
</svg>
