<svg width="34" height="33" viewBox="0 0 34 33" fill="none" xmlns="http://www.w3.org/2000/svg">
<path fill-rule="evenodd" clip-rule="evenodd" d="M1.23178 4.74703C1.11373 4.82666 0.957807 4.99279 0.885269 5.11628C0.753867 5.34015 0.753418 5.37232 0.753418 14.9416C0.753418 24.4284 0.754956 24.5448 0.881801 24.7554C1.03971 25.0176 1.32261 25.1984 1.61989 25.227L1.84444 25.2487L1.88815 24.8075C1.9759 23.922 2.21791 23.226 2.69409 22.4895C3.20115 21.7053 3.89591 21.1059 4.7819 20.6879C5.41644 20.3885 5.90084 20.2697 6.66178 20.2268C8.13802 20.1435 9.52574 20.7037 10.553 21.7974C11.3215 22.6156 11.7436 23.5107 11.9079 24.6707L11.9898 25.2487H15.9042H19.8187L19.8354 15.4874C19.8468 8.85118 19.8305 5.6213 19.7847 5.39859C19.7171 5.07024 19.5334 4.83077 19.2291 4.67439C19.1274 4.62218 16.6627 4.60234 10.2677 4.60234H1.44644L1.23178 4.74703ZM10.5822 7.49495C10.807 7.58042 16.4514 11.1093 16.7054 11.3232C17.0701 11.6301 17.1152 12.2452 16.8003 12.6195C16.5855 12.8749 16.3171 12.973 15.9342 12.9362L15.614 12.9054V15.1462C15.614 17.2653 15.607 17.4008 15.4848 17.6404C15.4016 17.8036 15.2653 17.94 15.1022 18.0232C14.8553 18.1492 14.7324 18.1525 10.2813 18.1525C5.74794 18.1525 5.71192 18.1515 5.47184 18.0165C5.33877 17.9417 5.16879 17.7716 5.094 17.6385C4.96273 17.4049 4.95804 17.3191 4.95804 15.1535V12.9104L4.58893 12.9363C4.281 12.9578 4.18259 12.937 3.99515 12.8107C3.5519 12.5119 3.42262 11.888 3.71996 11.4825C3.83801 11.3214 9.32957 7.81296 9.86879 7.55409C10.1617 7.41345 10.331 7.39945 10.5822 7.49495ZM22.916 17.3657L21.7766 17.3848V21.336V25.2872L22.1453 25.2679L22.5141 25.2487L22.563 24.8955C22.7654 23.4371 23.2315 22.4655 24.1406 21.6076C25.1881 20.6189 26.4491 20.1483 27.8401 20.2268C28.6526 20.2725 29.1048 20.3912 29.8327 20.7495C31.3972 21.5196 32.4781 23.0618 32.6046 24.7044C32.6425 25.1942 32.651 25.2166 32.8013 25.2166C33.0299 25.2166 33.3196 25.0247 33.4801 24.767C33.6091 24.5599 33.6218 24.4443 33.6419 23.29C33.6884 20.6161 33.4194 19.6521 32.3217 18.5578C31.7502 17.9881 30.9425 17.5594 30.1641 17.4126C29.6748 17.3203 26.7518 17.3013 22.916 17.3657ZM6.1207 22.2356C5.05183 22.5232 4.17778 23.4018 3.88994 24.478C3.84276 24.6546 3.80411 25.0014 3.80411 25.2487C3.80411 27.5916 6.31585 29.0955 8.38754 27.9931C8.86192 27.7406 9.46604 27.1051 9.70208 26.6102C10.2759 25.4075 10.0431 24.019 9.10862 23.0704C8.32072 22.2707 7.17757 21.9512 6.1207 22.2356ZM26.8693 22.2254C25.3308 22.5987 24.2589 24.1997 24.5304 25.7191C24.9744 28.2047 27.9092 29.2212 29.7133 27.5143C30.3956 26.8688 30.6993 26.1708 30.6993 25.2487C30.6993 24.3266 30.3956 23.6286 29.7133 22.983C28.9559 22.2664 27.8808 21.98 26.8693 22.2254Z" fill="#2C2B46"/>
<path opacity="0.4" fill-rule="evenodd" clip-rule="evenodd" d="M21.7765 12.6076V15.4756L23.4238 15.4332C24.3298 15.4099 26.0027 15.3908 27.1413 15.3908H29.2115L28.3104 13.4482C27.8148 12.3798 27.328 11.3872 27.2284 11.2424C26.9522 10.8405 26.3754 10.3456 25.9313 10.1294C25.2219 9.7842 24.9176 9.73957 23.2715 9.73957H21.7765V12.6076Z" fill="#2C2B46"/>
<path opacity="0.4" fill-rule="evenodd" clip-rule="evenodd" d="M8.56897 10.6152L6.88391 11.6773V13.9515V16.2257H10.287H13.69L13.6731 13.9363L13.6562 11.6469L11.9872 10.5991C11.0693 10.0228 10.3038 9.55174 10.2861 9.55225C10.2685 9.55277 9.49579 10.0311 8.56897 10.6152Z" fill="#2C2B46"/>
</svg>
